<svg xmlns="http://www.w3.org/2000/svg" xmlns:xlink="http://www.w3.org/1999/xlink" width="238" height="237.77" viewBox="0 0 238 237.77">
  <defs>
    <clipPath id="clip-path">
      <path id="Path_5" data-name="Path 5" d="M0,.23H238V238H0Zm0,0"/>
    </clipPath>
  </defs>
  <g id="search-icon" transform="translate(0 -0.23)">
    <g id="Group_2" data-name="Group 2" clip-path="url(#clip-path)">
      <path id="Path_4" data-name="Path 4" d="M97.074.66A97.51,97.51,0,1,0,154.66,177.625l55.692,55.68A16.231,16.231,0,0,0,233.3,210.352l-55.692-55.68A97.5,97.5,0,0,0,97.074.66ZM95.9,17.535a80.551,80.551,0,0,1,82.774,78.273c.019.781.035,1.566.035,2.344A80.555,80.555,0,1,1,17.6,98.227v-.07A80.56,80.56,0,0,1,95.9,17.535Zm0,0"/>
    </g>
    <path id="Path_6" data-name="Path 6" d="M76.4,38.418a8.482,8.482,0,0,1,5.8,15.941,46.62,46.62,0,0,0-30.676,43.8,8.479,8.479,0,1,1-16.957,0A63.574,63.574,0,0,1,76.4,38.418Zm0,0"/>
  </g>
</svg>
